<?xml version="1.0" encoding="UTF-8"?>
<!DOCTYPE svg PUBLIC "-//W3C//DTD SVG 1.1//EN" "http://www.w3.org/Graphics/SVG/1.1/DTD/svg11.dtd">
<!-- Creator: CorelDRAW -->
<svg xmlns="http://www.w3.org/2000/svg" xml:space="preserve" width="177.562mm" height="77.0304mm" style="shape-rendering:geometricPrecision; text-rendering:geometricPrecision; image-rendering:optimizeQuality; fill-rule:evenodd; clip-rule:evenodd"
viewBox="0 0 181.113 78.571"
 xmlns:xlink="http://www.w3.org/1999/xlink">
 <defs>
  <style type="text/css">
   <![CDATA[
    .fil0 {fill:white}
    .fil1 {fill:#201F21}
    .fil2 {fill:#4E372E}
    .fil3 {fill:#6B4738}
    .fil7 {fill:#705446}
    .fil5 {fill:#854A39}
    .fil4 {fill:#987661}
    .fil6 {fill:#CD694A}
    .fil8 {fill:#4E372E;fill-rule:nonzero}
    .fil9 {fill:#705446;fill-rule:nonzero}
   ]]>
  </style>
 </defs>
 <g id="Warstwa_x0020_1">
  <metadata id="CorelCorpID_0Corel-Layer"/>
  <rect class="fil0" width="181.113" height="78.571"/>
  <path class="fil1" d="M29.2888 17.2444l22.3678 0 0 2.09936c-2.86304,1.02561 -4.93966,3.02369 -5.28615,7.16122l0 5.39141c-0.95013,0.625158 -1.58855,1.44758 -1.59508,2.61008l0 22.1233 -3.72484 3.46035 0 9.49793 -10.185 6.15029 -1.90077 -34.2151 0.324054 -24.2789z"/>
  <path class="fil2" d="M3.85591 41.617c1.33742,1.16923 2.03806,2.40557 1.96993,3.72331l0 13.5032c0.92514,0.448086 1.57253,1.10435 1.60925,2.21942l0 14.6755 23.4304 0 0 -34.2219 -27.0096 0.100572z"/>
  <path class="fil3" d="M29.2888 19.2071l0 -16.1755 -15.4728 0.176154c-4.62284,5.8956 -10.7806,8.99701 -10.0665,15.9993l25.5393 0z"/>
  <rect class="fil4" x="3.74952" y="19.2071" width="25.5393" height="21.0776"/>
  <polygon class="fil5" points="3.75115,35.5592 15.9838,20.6464 33.3461,41.5555 3.80531,41.617 "/>
  <polygon class="fil6" points="29.2888,3.03164 45.8992,3.03164 51.6566,10.1739 51.6566,17.2444 29.2888,17.2444 "/>
  <path class="fil7" d="M14.9818 48.4965c1.74094,-0.840174 3.40088,-0.789276 4.99392,0l0 7.65734 -4.99392 0c0,-2.55245 0,-5.1049 0,-7.65734z"/>
  <rect class="fil7" x="14.9818" y="64.1441" width="4.99392" height="10.6537"/>
  <path class="fil6" d="M32.9951 49.9458l4.43445 2.7693 0 5.04788c-3.18883,0.203796 -5.43874,0.12954 -6.55574,3.88895l-0.009588 -9.37808c0.710328,-0.776016 1.42066,-1.55203 2.13088,-2.32805z"/>
  <path class="fil8" d="M81.9311 18.2652l0 10.8102 -2.89915 0c-0.236334,-0.800802 -0.492048,-1.47604 -0.776628,-2.02113 -1.19636,1.54357 -2.96667,2.32019 -5.31583,2.32019 -2.48431,0 -4.52962,-0.87312 -6.13112,-2.60967 -1.6015,-1.73655 -2.4022,-4.09061 -2.4022,-7.05728 0,-2.88466 0.776628,-5.30614 2.32509,-7.27433 1.54836,-1.9633 3.85417,-2.94729 6.91733,-2.94729 2.30092,0 4.14844,0.588438 5.55217,1.75583 1.40372,1.16739 2.3155,2.82683 2.73034,4.97342l-5.74036 0.564366c-0.279786,-2.00675 -1.1626,-3.01012 -2.64343,-3.01012 -1.93922,0 -2.90884,1.84753 -2.90884,5.54258 0,2.2286 0.308754,3.70474 0.931056,4.41385 0.622302,0.713898 1.37476,1.066 2.26236,1.066 0.713898,0 1.32651,-0.217056 1.82825,-0.646374 0.50643,-0.434112 0.762144,-1.02745 0.771732,-1.7848l-3.19331 0 0 -4.0954 8.69254 0z"/>
  <path id="1" class="fil8" d="M85.0569 29.0754l0 -19.2904 7.46242 0c3.23677,0 5.66314,0.959922 7.27433,2.88466 1.61119,1.91984 2.41679,4.14365 2.41679,6.66652 0,2.88466 -0.863532,5.22903 -2.59039,7.0331 -1.73176,1.80407 -3.97484,2.70616 -6.73414,2.70616l-7.82901 0zm5.91886 -4.43792l1.54357 0c0.979302,0 1.80418,-0.477564 2.47952,-1.4278 0.670446,-0.950334 1.00817,-2.24798 1.00817,-3.88324 0,-1.40852 -0.299064,-2.61446 -0.897294,-3.63232 -0.598128,-1.01786 -1.46156,-1.52918 -2.59039,-1.52918l-1.54357 0 0 10.4725z"/>
  <path id="12" class="fil8" d="M114.718 29.0754l-1.09018 -3.80113 -5.1712 0 -1.1577 3.80113 -4.80451 0 5.96221 -19.2904 6.26137 0 6.03463 19.2904 -6.03463 0zm-5.258 -8.01241l3.13548 0 -1.56774 -5.59562 -1.56774 5.59562z"/>
  <path id="123" class="fil8" d="M139.026 29.0754l-4.81909 0 -5.28686 -8.52373c-0.680136,-1.09018 -1.36027,-2.42148 -2.0501,-3.98443 0.313548,1.2445 0.467874,2.30092 0.467874,3.16445l0 9.34371 -4.80451 0 0 -19.2904 5.59562 0 4.49096 7.06687c0.897294,1.40372 1.57743,2.63864 2.03572,3.69985 -0.299064,-1.64485 -0.448698,-3.33326 -0.448698,-5.05532l0 -5.71139 4.81909 0 0 19.2904zm-10.8246 -22.8794l6.45905 -3.16435 1.02745 2.75441 -6.75332 2.34916 -0.733176 -1.93922z"/>
  <path id="1234" class="fil8" d="M140.396 23.4943l5.49433 -0.98889c0.46308,1.55326 1.64975,2.32988 3.56,2.32988 1.49053,0 2.23339,-0.395556 2.23339,-1.18667 0,-0.414834 -0.16881,-0.738072 -0.51612,-0.969612 -0.342516,-0.23154 -0.955128,-0.434112 -1.84273,-0.612612 -3.3815,-0.651168 -5.55217,-1.50022 -6.51209,-2.54215 -0.964818,-1.04672 -1.44238,-2.27684 -1.44238,-3.69016 0,-1.81866 0.689826,-3.33326 2.06948,-4.53931 1.37955,-1.20595 3.36702,-1.80887 5.95741,-1.80887 3.92659,0 6.52178,1.58222 7.78566,4.73698l-4.90589 1.48573c-0.50643,-1.29275 -1.53877,-1.93922 -3.09203,-1.93922 -1.29275,0 -1.93922,0.400452 -1.93922,1.20115 0,0.357 0.149532,0.636786 0.439008,0.834564 0.29427,0.197778 0.858636,0.385866 1.69799,0.564366 2.30581,0.492048 3.94587,0.92616 4.91548,1.30244 0.974406,0.376278 1.7848,1.01786 2.43117,1.92953 0.65127,0.906882 0.974406,1.97778 0.974406,3.21269 0,1.94881 -0.791112,3.53104 -2.37334,4.74178 -1.58222,1.21074 -3.66129,1.81856 -6.2323,1.81856 -4.69843,0 -7.60237,-1.9633 -8.70223,-5.8802z"/>
  <polygon id="12345" class="fil8" points="177.365,29.0754 170.877,29.0754 167.544,21.7818 165.552,24.623 165.552,29.0754 159.971,29.0754 159.971,9.78496 165.552,9.78496 165.552,17.7539 170.877,9.78496 176.193,9.78496 171.316,16.8373 "/>
  <polygon id="123456" class="fil8" points="79.7796,51.3782 79.7796,55.9849 65.2696,55.9849 65.2696,36.6945 79.7796,36.6945 79.7796,41.1469 71.0775,41.1469 71.0775,43.9447 78.1155,43.9447 78.1155,48.2283 71.0775,48.2283 71.0775,51.3782 "/>
  <path id="1234567" class="fil8" d="M98.8193 36.6945l-5.99607 19.2904 -6.03463 0 -6.24199 -19.2904 6.24199 0 3.03909 10.5159c0.207366,0.622302 0.39066,1.23491 0.554676,1.83794l3.56 -12.3538 4.87693 0z"/>
  <polygon id="12345678" class="fil8" points="115.109,51.3782 115.109,55.9849 100.599,55.9849 100.599,36.6945 115.109,36.6945 115.109,41.1469 106.407,41.1469 106.407,43.9447 113.445,43.9447 113.445,48.2283 106.407,48.2283 106.407,51.3782 "/>
  <path id="123456789" class="fil8" d="M133.951 55.9849l-4.81909 0 -5.28686 -8.52373c-0.680136,-1.09018 -1.36027,-2.42148 -2.0501,-3.98443 0.313548,1.2445 0.467874,2.30092 0.467874,3.16445l0 9.34371 -4.80451 0 0 -19.2904 5.59562 0 4.49096 7.06687c0.897294,1.40372 1.57743,2.63864 2.03572,3.69985 -0.299064,-1.64485 -0.448698,-3.33326 -0.448698,-5.05532l0 -5.71139 4.81909 0 0 19.2904z"/>
  <polygon id="12345678910" class="fil8" points="145.239,41.3157 145.239,55.9849 139.629,55.9849 139.629,41.3157 135.63,41.3157 135.63,36.6945 149.238,36.6945 149.238,41.3157 "/>
  <path id="1234567891011" class="fil8" d="M149.339 50.4038l5.49433 -0.98889c0.46308,1.55326 1.64975,2.32988 3.56,2.32988 1.49053,0 2.23339,-0.395556 2.23339,-1.18667 0,-0.414834 -0.16881,-0.738072 -0.51612,-0.969612 -0.342516,-0.23154 -0.955128,-0.434112 -1.84273,-0.612612 -3.3815,-0.651168 -5.55217,-1.50022 -6.51209,-2.54215 -0.964818,-1.04672 -1.44238,-2.27684 -1.44238,-3.69016 0,-1.81866 0.689826,-3.33326 2.06948,-4.53931 1.37955,-1.20595 3.36702,-1.80887 5.95741,-1.80887 3.92659,0 6.52178,1.58222 7.78566,4.73698l-4.90589 1.48573c-0.50643,-1.29275 -1.53877,-1.93922 -3.09203,-1.93922 -1.29275,0 -1.93922,0.400452 -1.93922,1.20115 0,0.357 0.149532,0.636786 0.439008,0.834564 0.29427,0.197778 0.858636,0.385866 1.69799,0.564366 2.30581,0.492048 3.94587,0.92616 4.91548,1.30244 0.974406,0.376278 1.7848,1.01786 2.43117,1.92953 0.65127,0.906882 0.974406,1.97778 0.974406,3.21269 0,1.94881 -0.791112,3.53104 -2.37334,4.74178 -1.58222,1.21074 -3.66129,1.81856 -6.2323,1.81856 -4.69843,0 -7.60237,-1.9633 -8.70223,-5.8802z"/>
  <path class="fil9" d="M64.9787 73.8399l0 -7.29983 2.82387 0c1.22482,0 2.14302,0.363324 2.75278,1.0916 0.609654,0.726546 0.914532,1.56805 0.914532,2.52277 0,1.0916 -0.326808,1.9787 -0.980322,2.66138 -0.655248,0.682686 -1.50409,1.02408 -2.54827,1.02408l-2.96259 0zm2.23972 -1.67933l0.584154 0c0.370566,0 0.682686,-0.180744 0.938298,-0.540396 0.253674,-0.35955 0.38148,-0.850578 0.38148,-1.46941 0,-0.533052 -0.11322,-0.9894 -0.339558,-1.37455 -0.226338,-0.385152 -0.553044,-0.578646 -0.98022,-0.578646l-0.584154 0 0 3.96301z"/>
  <path id="1" class="fil9" d="M76.7599 72.4873l0 1.35262 -4.79716 0 0 -1.18106 2.29265 -2.948c-0.273768,0.010914 -0.46002,0.016422 -0.55488,0.016422l-1.55162 0 0 -1.32712 4.52523 0 0 1.14454 -2.34386 2.95351 0.284784 -0.005406c0.05661,-0.003672 0.107712,-0.005508 0.155142,-0.005508l1.98971 0zm-3.38069 -5.5894l2.44423 -1.19748 0.388824 1.04234 -2.55561 0.88893 -0.27744 -0.733788z"/>
  <polygon id="12" class="fil9" points="84.9998,68.4002 83.2783,73.8399 81.7432,73.8399 81.0312,70.8938 80.2884,73.8399 78.7696,73.8399 77.0154,68.4002 79.111,68.4002 79.8284,71.0635 80.5129,68.4002 82.0845,68.4002 82.7636,71.0635 83.5193,68.4002 "/>
  <path id="123" class="fil9" d="M87.7707 66.3101l0 1.69034 -2.13394 0 0 -1.69034 2.13394 0zm0 2.09008l0 5.43976 -2.13394 0 0 -5.43976 2.13394 0z"/>
  <path id="1234" class="fil9" d="M94.5612 67.1663l-0.052938 1.46033 -0.102306 -0.005508c-0.191658,-0.011016 -0.330378,-0.016422 -0.410652,-0.016422 -0.332214,0 -0.531216,0.065688 -0.600576,0.197166 0.407082,0.335784 0.609654,0.74103 0.609654,1.2139 0,0.556716 -0.218994,0.974712 -0.65892,1.25399 -0.441762,0.281112 -1.03867,0.419832 -1.79438,0.419832 -0.018258,0 -0.111384,-0.00357 -0.279276,-0.010914 -0.156978,-0.007344 -0.23919,-0.00918 -0.244596,-0.00918 -0.346902,0 -0.520302,0.087618 -0.520302,0.266526 0,0.156978 0.153408,0.241026 0.46002,0.25194l1.74879 0.074868c0.638826,0.027336 1.10619,0.206244 1.40372,0.534786 0.297534,0.326808 0.447168,0.710124 0.447168,1.15005 0,0.5202 -0.222666,0.94554 -0.666264,1.27408 -0.443598,0.33048 -1.30693,0.4947 -2.59019,0.4947 -1.9788,0 -2.9682,-0.454512 -2.9682,-1.36354 0,-0.4947 0.26112,-0.8415 0.786828,-1.03683 -0.339558,-0.23919 -0.509286,-0.522138 -0.509286,-0.85068 0,-0.534786 0.348636,-0.938196 1.04407,-1.20839 -0.582318,-0.253776 -0.872508,-0.673608 -0.872508,-1.26133 0,-0.53856 0.235416,-0.958392 0.706452,-1.25776 0.469098,-0.29937 1.11527,-0.449004 1.93494,-0.449004 0.374136,0 0.71553,0.036516 1.02214,0.111282 0.124134,-0.850578 0.575076,-1.27775 1.35272,-1.27775 0.178806,0 0.42891,0.014586 0.753882,0.04386zm-3.12334 3.5139c0.414426,0 0.62067,-0.220932 0.62067,-0.659022 0,-0.449004 -0.211752,-0.673506 -0.637092,-0.673506 -0.419832,0 -0.629748,0.228174 -0.629748,0.684522 0,0.430746 0.215424,0.648006 0.64617,0.648006zm-0.545802 3.0904c-0.078438,-0.003672 -0.156978,-0.005508 -0.235416,-0.005508 -0.366894,0 -0.549474,0.11322 -0.549474,0.341394 0,0.211752 0.13872,0.3468 0.419832,0.407082 0.279276,0.06018 0.653514,0.091188 1.11894,0.091188 0.443598,0 0.726546,-0.03825 0.854352,-0.113118 0.12597,-0.074868 0.189822,-0.177072 0.189822,-0.310284 0,-0.09129 -0.029172,-0.16983 -0.085782,-0.231846 -0.05661,-0.062118 -0.193494,-0.098634 -0.407082,-0.109548l-1.30519 -0.06936z"/>
  <path id="12345" class="fil9" d="M100.439 73.8399l-2.13394 0 0 -3.42261c0,-0.281112 -0.043758,-0.461856 -0.131376,-0.540396 -0.087618,-0.078438 -0.197166,-0.11679 -0.328542,-0.11679 -0.388824,0 -0.582318,0.270198 -0.582318,0.812328l0 3.26747 -2.13394 0 0 -5.43976 1.9787 0 0 0.770406c0.292128,-0.587826 0.814164,-0.881688 1.56621,-0.881688 0.396168,0 0.730218,0.074766 1.00215,0.226338 0.27387,0.15147 0.4692,0.348636 0.58599,0.58956 0.118626,0.241026 0.177072,0.659022 0.177072,1.25409l0 3.48106z"/>
  <path id="123456" class="fil9" d="M103.696 66.3101l0 1.69034 -2.13394 0 0 -1.69034 2.13394 0zm0 2.09008l0 5.43976 -2.13394 0 0 -5.43976 2.13394 0z"/>
  <path id="1234567" class="fil9" d="M106.952 66.3211l0 1.67933 -2.12843 0 0 -1.67933 2.12843 0zm0 2.07907l0 5.11846c0,0.51663 -0.045696,0.918204 -0.136986,1.20299 -0.091188,0.28662 -0.293862,0.525708 -0.607818,0.722874 -0.313956,0.19533 -0.757554,0.293862 -1.33069,0.293862 -0.374238,0 -0.735624,-0.03468 -1.0862,-0.102204l0 -1.5553c0.15708,0.067524 0.314058,0.10047 0.471036,0.10047 0.374136,0 0.562224,-0.220932 0.562224,-0.662694l0 -5.11846 2.12843 0z"/>
  <polygon id="12345678" class="fil9" points="118.31,68.4002 116.588,73.8399 115.053,73.8399 114.341,70.8938 113.598,73.8399 112.08,73.8399 110.325,68.4002 112.421,68.4002 113.138,71.0635 113.823,68.4002 115.395,68.4002 116.074,71.0635 116.829,68.4002 "/>
  <path id="123456789" class="fil9" d="M124.027 68.4002l-2.13394 5.89427c-0.16422,0.445434 -0.399738,0.79407 -0.70635,1.04601 -0.306714,0.250002 -0.779484,0.375972 -1.41658,0.375972 -0.153306,0 -0.511122,-0.014586 -1.06967,-0.04743l0 -1.51327c0.27744,0.042024 0.534888,0.063852 0.770304,0.063852 0.613326,0 0.92004,-0.135048 0.92004,-0.40698 0,-0.087618 -0.031008,-0.211752 -0.09129,-0.36873l-1.9532 -5.0437 2.28358 0 0.899946 2.89884 0.940134 -2.89884 1.55703 0z"/>
  <path id="12345678910" class="fil9" d="M129.866 73.8399l-2.00063 0 0 -0.722874c-0.295698,0.556716 -0.784992,0.836094 -1.46584,0.836094 -0.626076,0 -1.13536,-0.246432 -1.52602,-0.735726 -0.39066,-0.491028 -0.58599,-1.20289 -0.58599,-2.13751 0,-0.872508 0.197166,-1.56621 0.587826,-2.07917 0.392496,-0.514692 0.91086,-0.770304 1.55703,-0.770304 0.53856,0 0.982056,0.204408 1.33079,0.615162l0 -2.30551 2.10283 0 0 7.29983zm-2.10283 -3.49748c0,-0.489192 -0.200838,-0.731952 -0.604248,-0.731952 -0.281112,0 -0.465528,0.155142 -0.553146,0.46359 -0.087618,0.310386 -0.131376,0.69003 -0.131376,1.14087 0,0.879852 0.224502,1.31978 0.675342,1.31978 0.16983,0 0.315894,-0.06936 0.43452,-0.20808 0.120462,-0.13872 0.178908,-0.350472 0.178908,-0.637092l0 -1.34711z"/>
  <path id="1234567891011" class="fil9" d="M136.471 73.8399l-2.03347 0c-0.049266,-0.231846 -0.074868,-0.48552 -0.074868,-0.75939 -0.385152,0.580482 -0.96747,0.87261 -1.74869,0.87261 -0.640764,0 -1.12088,-0.164322 -1.44024,-0.492864 -0.319464,-0.328644 -0.480114,-0.704616 -0.480114,-1.12812 0,-0.575076 0.262854,-1.03867 0.78489,-1.39281 0.522036,-0.35598 1.44758,-0.567732 2.77828,-0.638928l0 -0.124134c0,-0.239088 -0.054774,-0.397902 -0.16422,-0.476442 -0.107712,-0.078438 -0.268362,-0.11679 -0.478278,-0.11679 -0.491028,0 -0.766734,0.197166 -0.823242,0.593232l-1.94596 -0.180642c0.27744,-1.1373 1.22308,-1.70677 2.83856,-1.70677 0.43809,0 0.8415,0.043758 1.20839,0.131376 0.366894,0.087618 0.659022,0.222768 0.872508,0.408918 0.213588,0.184416 0.357816,0.38148 0.430848,0.587826 0.073032,0.206244 0.109548,0.604146 0.109548,1.19197l0 2.17219c0,0.41259 0.054774,0.766734 0.166056,1.05876zm-2.21422 -2.54643c-0.909024,0.096696 -1.36354,0.386988 -1.36354,0.872508 0,0.328644 0.178908,0.492864 0.538458,0.492864 0.228174,0 0.423504,-0.06936 0.584154,-0.204408 0.16065,-0.13515 0.240924,-0.434418 0.240924,-0.89811l0 -0.262854z"/>
  <path id="123456789101112" class="fil9" d="M139.455 73.8399l-2.04265 0 0 -5.43976 1.77429 0 0 1.12445c0.204408,-0.817734 0.675444,-1.22482 1.41831,-1.22482 0.074868,0 0.177072,0.007344 0.310386,0.02193l0 1.89842c-0.149736,-0.036516 -0.284784,-0.054774 -0.401574,-0.054774 -0.706452,0 -1.05876,0.394332 -1.05876,1.18289l0 2.49166z"/>
  <path id="12345678910111213" class="fil9" d="M146.007 72.4873l0 1.35262 -4.79716 0 0 -1.18106 2.29265 -2.948c-0.273768,0.010914 -0.46002,0.016422 -0.55488,0.016422l-1.55162 0 0 -1.32712 4.52523 0 0 1.14454 -2.34386 2.95351 0.284784 -0.005406c0.05661,-0.003672 0.107712,-0.005508 0.155142,-0.005508l1.98971 0z"/>
  <path id="1234567891011121314" class="fil9" d="M150.342 71.8886l1.98961 0.133212c-0.11679,0.534888 -0.417996,0.9894 -0.899844,1.36547 -0.483786,0.377808 -1.1373,0.565896 -1.96054,0.565896 -0.916368,0 -1.64832,-0.26469 -2.19229,-0.795906 -0.545802,-0.52938 -0.81957,-1.18473 -0.81957,-1.96962 0,-0.812328 0.270096,-1.49869 0.808656,-2.05907 0.538458,-0.560388 1.25582,-0.839664 2.15393,-0.839664 0.870672,0 1.57355,0.26469 2.11018,0.792234 0.536622,0.527544 0.804984,1.24491 0.804984,2.15393 0,0.074868 -0.001836,0.178908 -0.005508,0.310386l-3.6416 0c0.007242,0.343128 0.067524,0.596904 0.182478,0.76296 0.11322,0.164322 0.330378,0.248268 0.651678,0.248268 0.463692,0 0.735624,-0.222666 0.817836,-0.6681zm-0.13872 -1.4129c-0.003672,-0.366894 -0.076704,-0.613326 -0.220932,-0.74103 -0.144228,-0.12597 -0.32487,-0.189924 -0.538458,-0.189924 -0.505614,0 -0.75939,0.310386 -0.75939,0.930954l1.51878 0z"/>
  <path id="123456789101112131415" class="fil9" d="M158.483 73.8399l-2.13394 0 0 -3.42261c0,-0.281112 -0.043758,-0.461856 -0.131376,-0.540396 -0.087618,-0.078438 -0.197166,-0.11679 -0.328542,-0.11679 -0.388824,0 -0.582318,0.270198 -0.582318,0.812328l0 3.26747 -2.13394 0 0 -5.43976 1.9787 0 0 0.770406c0.292128,-0.587826 0.814164,-0.881688 1.56621,-0.881688 0.396168,0 0.730218,0.074766 1.00215,0.226338 0.27387,0.15147 0.4692,0.348636 0.58599,0.58956 0.118626,0.241026 0.177072,0.659022 0.177072,1.25409l0 3.48106z"/>
  <path id="12345678910111213141516" class="fil9" d="M161.74 66.3101l0 1.69034 -2.13394 0 0 -1.69034 2.13394 0zm0 2.09008l0 5.43976 -2.13394 0 0 -5.43976 2.13394 0z"/>
  <path id="1234567891011121314151617" class="fil9" d="M168.344 73.8399l-2.03347 0c-0.049266,-0.231846 -0.074868,-0.48552 -0.074868,-0.75939 -0.385152,0.580482 -0.96747,0.87261 -1.74869,0.87261 -0.640764,0 -1.12088,-0.164322 -1.44024,-0.492864 -0.319464,-0.328644 -0.480114,-0.704616 -0.480114,-1.12812 0,-0.575076 0.262854,-1.03867 0.78489,-1.39281 0.522036,-0.35598 1.44758,-0.567732 2.77828,-0.638928l0 -0.124134c0,-0.239088 -0.054774,-0.397902 -0.16422,-0.476442 -0.107712,-0.078438 -0.268362,-0.11679 -0.478278,-0.11679 -0.491028,0 -0.766734,0.197166 -0.823242,0.593232l-1.94596 -0.180642c0.27744,-1.1373 1.22308,-1.70677 2.83856,-1.70677 0.43809,0 0.8415,0.043758 1.20839,0.131376 0.366894,0.087618 0.659022,0.222768 0.872508,0.408918 0.213588,0.184416 0.357816,0.38148 0.430848,0.587826 0.073032,0.206244 0.109548,0.604146 0.109548,1.19197l0 2.17219c0,0.41259 0.054774,0.766734 0.166056,1.05876zm-2.21422 -2.54643c-0.909024,0.096696 -1.36354,0.386988 -1.36354,0.872508 0,0.328644 0.178908,0.492864 0.538458,0.492864 0.228174,0 0.423504,-0.06936 0.584154,-0.204408 0.16065,-0.13515 0.240924,-0.434418 0.240924,-0.89811l0 -0.262854z"/>
  <polygon id="123456789101112131415161718" class="fil9" points="171.248,71.8886 171.248,73.8399 169.217,73.8399 169.217,71.8886 "/>
  <polygon id="12345678910111213141516171819" class="fil9" points="174.259,71.8886 174.259,73.8399 172.227,73.8399 172.227,71.8886 "/>
  <polygon id="1234567891011121314151617181920" class="fil9" points="177.269,71.8886 177.269,73.8399 175.237,73.8399 175.237,71.8886 "/>
 </g>
</svg>
