<?xml version="1.0" encoding="utf-8"?>
<!-- Generator: Adobe Illustrator 15.1.0, SVG Export Plug-In . SVG Version: 6.00 Build 0)  -->
<!DOCTYPE svg PUBLIC "-//W3C//DTD SVG 1.1//EN" "http://www.w3.org/Graphics/SVG/1.1/DTD/svg11.dtd">
<svg version="1.1" id="Capa_1" xmlns="http://www.w3.org/2000/svg" xmlns:xlink="http://www.w3.org/1999/xlink" x="0px" y="0px"
	 width="512px" height="512px" viewBox="0 0 512 512" enable-background="new 0 0 512 512" xml:space="preserve">
<g>
	<g>
		<path fill="#2A8487" d="M180.241,285.01v67.861c0,5.463,4.429,9.892,9.895,9.892c5.467,0,9.896-4.429,9.896-9.892v-61.66
			l-31.343-33.081c-6.846-7.228-9.547-17.323-7.222-27.003l7.542-31.43h-8.815l6.612-10.03c1.395,0.637,2.861,1.141,4.401,1.453
			c1.59-4.696,4.287-8.796,7.759-12.034c4.55-4.238,10.427-6.975,16.861-7.653c0.964-0.101,1.937-0.166,2.926-0.172v-32.376
			c0-5.463-4.429-9.892-9.892-9.892c-5.462,0-9.892,4.432-9.892,9.892v11.938c-1.183-0.213-2.397-0.343-3.643-0.343
			c-1.253,0-2.473,0.129-3.664,0.345v-28.169c0-5.463-4.429-9.892-9.895-9.892c-5.463,0-9.892,4.428-9.892,9.892v53.715l-4.791,7.27
			l-4.792-7.27v-53.715c0-5.463-4.429-9.892-9.892-9.892c-5.462,0-9.892,4.428-9.892,9.892v28.169
			c-1.191-0.213-2.411-0.345-3.664-0.345c-2.526,0-4.938,0.479-7.175,1.315v-46c0-5.463-4.429-9.892-9.895-9.892
			c-5.465,0-9.892,4.429-9.892,9.892v53.715l-6.073,9.215v-46.069c0-5.463-4.43-9.892-9.892-9.892c-5.463,0-9.893,4.428-9.893,9.892
			v12.278c-2.236-0.834-4.645-1.315-7.174-1.315c-11.337,0-20.526,9.189-20.526,20.526s9.188,20.526,20.526,20.526
			c2.526,0,4.938-0.479,7.174-1.315v5.98c0,1.203,0.245,2.383,0.666,3.496h-7.84H41.191l-15.375-23.325v-53.711
			c0-5.463-4.429-9.892-9.892-9.892s-9.893,4.427-9.893,9.89v56.682c0,1.936,0.567,3.827,1.633,5.443l26.68,40.479v43.246
			c-0.127,0.635-0.196,1.29-0.196,1.962v82.404c0,5.464,4.428,9.892,9.892,9.892s9.895-4.428,9.895-9.892v-67.863h4.918h4.918
			v67.861c0,5.464,4.43,9.892,9.895,9.892s9.895-4.428,9.895-9.892v-82.404c0-0.671-0.069-1.326-0.196-1.962v-43.042l10.979,16.657
			v43.247c-0.126,0.634-0.196,1.289-0.196,1.962v82.404c0,5.463,4.429,9.892,9.895,9.892c5.464,0,9.893-4.429,9.893-9.892V285.01
			h4.917h4.918v67.861c0,5.463,4.429,9.892,9.893,9.892c5.463,0,9.892-4.429,9.892-9.892v-82.404c0-0.672-0.071-1.326-0.196-1.962
			v-43.247l3.734-5.668l3.734,5.668v43.247c-0.127,0.634-0.196,1.289-0.196,1.962v82.404c0,5.463,4.428,9.892,9.892,9.892
			c5.463,0,9.895-4.429,9.895-9.892V285.01h4.918H180.241L180.241,285.01z M118.838,199.696h-17.66l-6.045-9.173l6.021-9.133
			c3.568,6.062,10.142,10.142,17.684,10.142c3.044,0,5.919-0.68,8.519-1.866l6.612,10.03L118.838,199.696L118.838,199.696z"/>
		<path fill="#2A8487" d="M221.307,181.69c1.017-1.626,2.107-3.2,3.302-4.69c1.113-1.389,2.279-2.729,3.533-3.988
			c2.2-2.211,4.609-4.209,7.191-5.974c2.824-1.927,5.862-3.558,9.063-4.873v-15.864c0-5.462-4.43-9.892-9.892-9.892
			c-2.437,0-4.64,0.917-6.362,2.374v-16.128c0-5.463-4.43-9.892-9.895-9.892c-5.466,0-9.893,4.428-9.893,9.892v50.174
			c2.271,0.767,4.382,1.807,6.334,3.055C217.201,177.487,219.421,179.451,221.307,181.69z"/>
		<polygon fill="#2A8487" points="214.81,306.816 207.079,298.656 207.079,357.732 214.81,348.284 		"/>
		<path fill="#2A8487" d="M493.292,103.316c-5.461,0-9.892,4.429-9.892,9.892v53.715l-15.373,23.325h-17.66h-7.84
			c0.422-1.116,0.666-2.293,0.666-3.496v-5.98c2.237,0.834,4.646,1.315,7.171,1.315c11.337,0,20.526-9.189,20.526-20.526
			s-9.189-20.526-20.526-20.526c-2.525,0-4.938,0.479-7.171,1.315v-12.278c0-5.463-4.429-9.892-9.896-9.892
			c-5.462,0-9.892,4.428-9.892,9.892v46.071l-6.077-9.215v-53.721c0-5.463-4.428-9.892-9.891-9.892s-9.896,4.429-9.896,9.892v46.001
			c-2.237-0.835-4.646-1.315-7.174-1.315c-1.252,0-2.472,0.129-3.665,0.345v-28.168c0-5.463-4.428-9.892-9.892-9.892
			c-5.462,0-9.891,4.428-9.891,9.892v53.715l-4.793,7.27l-0.753-1.141v2.282v33.669v2.282l0.753-1.141l3.734,5.668v43.247
			c-0.126,0.635-0.196,1.289-0.196,1.961v82.405c0,5.462,4.429,9.892,9.894,9.892c5.464,0,9.893-4.43,9.893-9.892v-67.862h4.918
			h4.917v67.862c0,5.462,4.429,9.892,9.892,9.892s9.896-4.43,9.896-9.892v-82.405c0-0.672-0.07-1.326-0.197-1.963v-43.246
			l10.979-16.657v43.043c-0.125,0.635-0.195,1.289-0.195,1.961v82.404c0,5.463,4.429,9.892,9.894,9.892
			c5.466,0,9.893-4.429,9.893-9.892v-67.861h4.917h4.917v67.861c0,5.463,4.431,9.892,9.896,9.892c5.466,0,9.893-4.429,9.893-9.892
			v-82.404c0-0.671-0.07-1.326-0.198-1.961v-43.248l26.68-40.479c1.065-1.616,1.635-3.507,1.635-5.443v-56.682
			C503.187,107.749,498.76,103.316,493.292,103.316z M408.035,207.112h-17.659h-15.127l6.613-10.03
			c2.595,1.188,5.474,1.866,8.518,1.866c7.543,0,14.118-4.081,17.685-10.142l6.02,9.133L408.035,207.112z"/>
		<path fill="#2A8487" d="M358.398,241.813c-0.553,1.135-1.151,2.248-1.855,3.313l-38.847,58.939v61.321
			c0.203,1.399,0.308,2.812,0.308,4.207v0.475c0.356,0.04,0.708,0.11,1.076,0.11c5.463,0,9.892-4.429,9.892-9.892v-67.861h4.918
			h4.918v67.861c0,5.463,4.429,9.892,9.894,9.892s9.892-4.429,9.892-9.892v-82.404c0-0.672-0.069-1.326-0.197-1.963v-34.107H358.398
			z"/>
		<path fill="#2A8487" d="M300.856,130.069c0-5.463-4.429-9.892-9.892-9.892c-5.462,0-9.894,4.428-9.894,9.892v1.296
			c-1.726-1.461-3.927-2.375-6.363-2.375c-5.463,0-9.892,4.432-9.892,9.892v19.683c5.719,0.205,11.191,1.375,16.255,3.378
			c1.202,0.475,2.375,1.009,3.53,1.573c6.274,3.075,11.822,7.399,16.254,12.714L300.856,130.069L300.856,130.069z"/>
		<path fill="#2A8487" d="M87.411,86.669c5.901-7.745,6.166-18.638,1.287-27.158c-5.278-9.215-28.344-26.767-15.605-36.978
			c7.07-5.668-2.939-15.543-9.937-9.937c-8.296,6.649-9.086,16.855-6.199,26.522c3.847,12.879,29.12,26.281,18.322,40.456
			C69.782,86.787,81.995,93.772,87.411,86.669z"/>
		<path fill="#2A8487" d="M453.699,26.619c9.015-0.913,5.982-14.644-2.936-13.742c-10.58,1.071-16.789,9.206-19.621,18.89
			c-3.774,12.901,10.152,37.89-6.615,43.915c-8.533,3.065-2.081,15.568,6.324,12.547c9.165-3.293,15.308-12.292,15.846-22.094
			C447.274,55.534,437.456,28.264,453.699,26.619z"/>
		<path fill="#2A8487" d="M178.484,85.123c1.51,9.701,8.519,18.047,17.964,20.411c8.667,2.169,13.844-10.912,5.05-13.115
			c-17.285-4.33-5.912-30.578-10.947-43.042c-3.78-9.355-10.77-16.834-21.403-16.848c-8.964-0.011-10.619,13.953-1.557,13.964
			C183.911,46.519,176.854,74.633,178.484,85.123z"/>
		<path fill="#2A8487" d="M350.206,34.761c4.131-9.207,4.688-19.427-2.667-27.107c-6.198-6.478-17.42,2.001-11.153,8.546
			c11.29,11.792-13.88,26.169-20.321,34.611c-5.954,7.806-7.121,18.64-2.284,27.093c4.436,7.753,17.458,2.431,12.959-5.44
			C317.892,56.998,344.705,47.028,350.206,34.761z"/>
		<path fill="#2A8487" d="M223.361,49.487c3.763,9.069,12.551,15.516,22.285,15.574c8.934,0.056,10.864-13.879,1.798-13.938
			c-17.819-0.113-12.985-28.308-20.832-39.222c-5.891-8.195-14.451-13.804-24.783-11.297c-8.715,2.113-7.015,16.071,1.793,13.936
			C219.492,10.694,219.292,39.679,223.361,49.487z"/>
		<path fill="#2A8487" d="M124.098,87.916c12.686,0,12.686-19.671,0-19.671S111.413,87.916,124.098,87.916z"/>
		<path fill="#2A8487" d="M29.956,59.814c12.685,0,12.685-19.672,0-19.672C17.27,40.142,17.27,59.814,29.956,59.814z"/>
		<path fill="#2A8487" d="M294.117,14.85c-12.685,0-12.685,19.672,0,19.672S306.802,14.85,294.117,14.85z"/>
		<path fill="#2A8487" d="M275.849,85.106c12.687,0,12.687-19.672,0-19.672C263.165,65.434,263.165,85.106,275.849,85.106z"/>
		<path fill="#2A8487" d="M384.045,55.6c12.685,0,12.685-19.672,0-19.672S371.359,55.6,384.045,55.6z"/>
		<path fill="#2A8487" d="M496.454,57.003c-12.685,0-12.685,19.672,0,19.672S509.139,57.003,496.454,57.003z"/>
		<path fill="#2A8487" d="M309.186,291.445l35.624-54.05c1.646-2.492,2.519-5.413,2.519-8.396v-21.883v-2.563v-10.634v-30.985
			v-41.628c0-0.374-0.028-0.742-0.056-1.109c-0.57-7.908-7.153-14.152-15.211-14.152c-8.431,0-15.261,6.834-15.261,15.263v15.788
			v29.966v22.729v17.325v17.306l-7.42,11.254l-16.298,24.733h-36.793h-3.366h-20.669l-25.508-26.928l5.059-21.074l1.984-8.266
			c0.005-0.028,0.008-0.059,0.017-0.087c0.093-0.402,0.166-0.803,0.225-1.203c0.02-0.2,0.054-0.393,0.076-0.593
			c0.196-1.75,0.082-3.479-0.304-5.128c-0.364-1.566-0.964-3.06-1.784-4.423c-2.038-3.38-5.371-5.977-9.51-6.972
			c-0.099-0.022-0.194-0.031-0.292-0.053c-1.105-0.245-2.206-0.377-3.294-0.377c-0.059,0-0.114,0.015-0.173,0.015
			c-6.821,0.078-12.98,4.757-14.645,11.69l-0.645,2.683l-0.994,4.147l-7.334,30.562c-1.206,5.021,0.21,10.313,3.76,14.062
			l21.136,22.314l7.25,7.654l21.582,22.785v0.02v52.062l-1.995,2.437l-16.749,20.47L178.16,415.27
			c-5.111,6.253-4.474,15.402,1.462,20.885l38.888,35.898c2.934,2.709,6.646,4.046,10.347,4.046c4.112,0,8.212-1.652,11.219-4.909
			c5.719-6.196,5.331-15.85-0.863-21.571l-28.321-26.145l25.729-31.439h36.808v104.703c0,8.428,6.835,15.263,15.263,15.263
			c8.429,0,15.262-6.835,15.262-15.263v-127.14c0-1.037-0.109-2.051-0.307-3.03v-66.711L309.186,291.445z"/>
		<path fill="#2A8487" d="M228.833,215.925c2.335,9.774,8.714,17.972,17.306,22.685c3.125,1.713,6.543,2.959,10.153,3.659
			c2.187,0.424,4.438,0.663,6.745,0.663c13.826,0,25.756-7.993,31.513-19.59c1.344-2.707,2.379-5.592,2.99-8.639
			c0.454-2.254,0.698-4.586,0.698-6.975c0-2.751-0.348-5.415-0.945-7.983c-1.854-7.99-6.419-14.923-12.689-19.796
			c-1.125-0.874-2.306-1.675-3.53-2.409c-2.133-1.276-4.404-2.341-6.798-3.147c-2.992-1.009-6.165-1.61-9.456-1.776
			c-0.593-0.031-1.18-0.09-1.781-0.09c-5.114,0-9.962,1.116-14.347,3.078c-1.492,0.666-2.919,1.442-4.294,2.301
			c-8.914,5.584-15.157,15.02-16.347,25.998c-0.022,0.199-0.025,0.398-0.054,0.598c-0.087,0.947-0.135,1.906-0.146,2.872
			c0,0.118-0.018,0.233-0.018,0.354c0,1.138,0.065,2.259,0.172,3.37C228.161,212.746,228.456,214.352,228.833,215.925z"/>
	</g>
</g>
</svg>
