<?xml version="1.0" encoding="utf-8"?>
<!-- Generator: Adobe Illustrator 20.1.0, SVG Export Plug-In . SVG Version: 6.00 Build 0)  -->
<svg version="1.1" id="Layer_1" xmlns="http://www.w3.org/2000/svg" xmlns:xlink="http://www.w3.org/1999/xlink" x="0px" y="0px"
	 viewBox="0 0 90.4 116.1" style="enable-background:new 0 0 90.4 116.1;" xml:space="preserve">
<style type="text/css">
	.st0{fill:#FFFFFF;}
	.st1{fill:#727272;}
	.st2{enable-background:new    ;}
</style>
<rect class="st0" width="90.4" height="116.1"/>
<g>
	<g>
		<path class="st1" d="M27,5.4c0-0.1,0-0.2,0-0.3c0.1,0,0.2,0.1,0.2,0.2c0.4,0-0.3-0.5,0.2-0.7c0.6,0.1,0.1,0.7,0,1
			C27.2,5.5,27.2,5.4,27,5.4z"/>
		<path class="st1" d="M40.2,58.2c-0.5,1.2-1.8,1.6-2.6,2.4c-0.7-0.3-1.3-0.8-1.7-1.4C36.9,57.9,38.8,56.1,40.2,58.2z"/>
		<path class="st1" d="M31.7,62.2c0.7,0.4,1.3,0.9,1.9,1.4c-0.6,1.1-1.8,1.5-2.8,2.2c-0.8-0.3-1.2-1-1.9-1.4
			C29.8,63.6,30.9,63.1,31.7,62.2z"/>
		<path class="st1" d="M26.7,68.8c-1,0.6-2,1.2-2.9,1.7c-0.8-0.4-1.5-1-1.9-1.9C23.6,67.5,25.7,66.3,26.7,68.8z"/>
		<path class="st1" d="M17.5,71c0.8,0.5,1.5,1,1.7,2.1c-1.4,0.2-1.8,1.3-3.5,1.2c-0.3-0.8-1.1-1-1.4-1.9
			C15.6,72.1,16.3,71.3,17.5,71z"/>
		<path class="st1" d="M24.1,72c0.1,0.4-1.2,0.6-1,0C23.6,71.9,23.6,71.9,24.1,72z"/>
		<path class="st1" d="M9.6,74.5c0.9,0.4,1.5,1,1.9,1.9c-1,0.5-2,0.9-2.9,1.4c-0.7-0.6-1.3-1.2-1.7-1.9C7.5,75.2,9,75.3,9.6,74.5z"
			/>
		<path class="st1" d="M51.7,79.1c-0.9,1-2,1.8-2.9,2.8c-0.9-0.2-1.1-1.2-1.9-1.6C48.2,78.9,50.2,76.6,51.7,79.1z"/>
		<path class="st1" d="M44.5,85.3c-0.4,1.3-2.9,0.5-4.3,0.7C41.4,84.7,43.4,82.7,44.5,85.3z"/>
		<path class="st1" d="M26.2,7.4C25.9,7,26.8,6.2,27,5.7c-0.9,0.7-1.4,1.7-2.1,2.6c0.1-0.8,1.4-1.9,1.9-2.9
			C27.7,5.9,26.3,6.7,26.2,7.4z"/>
		<path class="st1" d="M13.4,27.8c0.6-0.1-1.1,1.8-1.7,2.2c5-0.5,10.4-1,16.1-1c2.2,0,4.7-0.3,6.6,0c2.1,0.3,3.8,2.7,5.9,1.4
			c0-0.9-0.9-3.6,0-4.5c-0.3-0.4-1.3-0.1-1.9-0.2c0-1.5,0-3,0-4.5C37.9,21,37,21.7,36,21.4c0-0.5-0.1-1,0.2-1.2c-0.6,0-1.3,0-1.9,0
			c0.2-1.1,1-1.7,1-2.2c0.1-0.6,0.8-4.8,4.1-4.3c3.1,0.4,6,3.1,5,7.9c0.1,0.6,1.1,0.3,1.7,0.3c-1.9,2.2-2.2,5.5-1.7,9.3
			c0.8-0.1,1.1-0.9,1.4-1.6c2,0.3,3.4-1.3,5.7-1.6c3.4-0.3,8.1,0,11.7,0c6.2,0,12.5,1.6,18.1,1.7c-1.2-2.1-2.3-5.9-3.6-8.5
			c0.3-0.3,0.5-0.6,0.7-1c0.8-0.5,0.7,0.6,1,1c1.6-1.1,2.7,0.7,4,0.9c2.3,0.3,3.6-0.8,5.4-1.7c0.5,5-4.5,10-7.4,5.5
			c0.4,1.4,1.1,2.6,1.6,4c1.4,0.3,2.6,0.7,4.3,0.7c0.1,2.8,0.6,5.1,0.7,7.9c-0.4-0.3-0.6-0.5-0.5,0.3c-0.3,0.8-0.7-0.9-1.2-0.9
			c0.2,1.9,1.8,3,2.1,4.5c0.9,5.3-9.5,8.4-9.7,2.9c-0.1-3,3.2-5.3,6.7-5.2C85.2,39,84.5,38,84,36.8c-10.2-0.5-22.5-4.1-32.3-1
			c-0.9,0.2-0.2-0.5,0-0.3c-0.4-0.2-2.4,2-2.8,2.8c0.5,3.4,3.5,7.2,3.3,12.8c0,1.2-0.6,2.2-0.3,3.3c0.2,0.7,1.2,1.8,1.9,2.8
			c1.9,2.7,3.7,5.5,5.9,7.8c2.3,6.3-1.8,14.2-2.6,20.9c-0.4,3.9,0.6,7.4,2.4,10.7c-0.9,0.1-1.3,0.8-2.2,0.9c-1.9-3.2-4-6.1-5.9-9.3
			c-0.4-0.5-0.8,0-1.2-0.3c0.8-3,2.5-6.4,3.1-10c0.3-2.1,0.7-4.9,0.3-7.3c-0.7-3.9-4.6-6.3-6.2-9.2c-1.6,2.3-1.5,5-2.8,7.3
			c-0.6,1-3,3.5-4,4.3c-2.7,2.2-7.7,3.7-11.6,5c-0.6,0.2-2,1.1-2.2,0.3c-1.9,1.8-2.4,2.1-4.3,3.3c-0.6,1.6-1.4,3-2.2,4.3
			c-0.9-0.2-1.4-0.7-1.9-1.4c1.6-3.1,3.8-7.5,5.9-11.2c-0.3-0.1-1-0.4-1.6-0.7c-4.4,2.2-8.6,4.5-13.5,6.2c1.9,2.7,4.3,4.9,6.4,7.4
			c3.8,0,7.5,0,11.2,0c3.6,0,7.9,0.8,11.2,0c2-0.5,5.7-4.5,7.3-5.9c2.6-2.2,5-4,7.1-6c-2.1-2.4-4.8-4.3-7.3-6.4
			c0.6-1.5,1.3-3,1.7-4.7c1.5,0.3,2.1,2.1,3.1,3.6c1.6,2.4,3.4,3.8,3.1,8.1c-0.3,4.6-1.6,6.4-4.1,8.6c-1,0.9-2.1,1.6-3.1,2.4
			c1.1,0.4,2.9,0.1,4.3,0.2c-0.2,0.6-0.6,1.2-0.7,1.9c3.2,2.6,4.5,7.1,7.3,10.2c1.2-0.3,2.3-0.8,3.5-1.2c-1.7-2.6-2.8-6.5-2.2-10.9
			c9.9,0,19.8,0,29.7,0c0,9.2,0,18.4,0,27.6c-28.4,0-56.9,0-85.3,0c0-9.2,0-18.4,0-27.6c3.3,0,6.7,0,10,0c-2.2-3.5-6.5-7.2-8.8-10.5
			c15.4-5.3,28.3-14,39-23.3c-0.8,3.8-2.2,7.1-3.6,10.2c-0.8,0.2-0.6-0.6-1.2-0.5c-4.3,3.5-8.7,6.9-13.6,9.7
			c5.6-0.2,12.6-3.2,14.9-7.4c0.9-1.8,1.7-4.2,2.6-6.4c0.9-2.2,1.7-4.5,2.1-6.7c-0.2-0.5-0.6,0.3-0.7-0.3c-0.4-4.8-3.4-6.9-5.5-10
			c-4.4-3.6-9-4.9-16.9-4.5c-2.4,0.1-5.1,0.4-7.8,0.7c-2.9,0.3-5.9,1-7.8,0.7c-0.4-0.1-0.8,0-0.2-0.3c-0.8,0.2-1.3,2.1-2.6,0.7
			c0.1-2.2-0.4-5,0.5-6.4c0.9-0.1,1.4-0.4,2.4-0.3C5.7,29,7.3,26.2,8,25.4c-0.4,0.6,2.1,1.2,2.8,1.2c-1.4,3-4.5,5.9-6.2,9.2
			c2.9-2.3,4.4-6,6.9-8.8C11.4,27.3,13,27.9,13.4,27.8z M35.8,59.3c0.4,0.6,1,1.1,1.7,1.4c0.8-0.9,2.1-1.2,2.6-2.4
			C38.8,56.1,36.9,57.9,35.8,59.3z M28.9,64.4c0.7,0.4,1.1,1.1,1.9,1.4c0.9-0.7,2.2-1.1,2.8-2.2c-0.6-0.5-1.2-1-1.9-1.4
			C30.9,63.1,29.8,63.6,28.9,64.4z M21.9,68.6c0.4,0.9,1.1,1.5,1.9,1.9c1-0.6,2-1.1,2.9-1.7C25.7,66.3,23.6,67.5,21.9,68.6z
			 M14.4,72.4c0.2,0.9,1.1,1.1,1.4,1.9c1.6,0.1,2.1-1,3.5-1.2c-0.2-1-1-1.6-1.7-2.1C16.3,71.3,15.6,72.1,14.4,72.4z M23.1,72
			c-0.2,0.6,1.1,0.4,1,0C23.6,71.9,23.6,71.9,23.1,72z M6.8,75.8c0.5,0.7,1.1,1.3,1.7,1.9c1-0.5,2-0.9,2.9-1.4
			c-0.4-0.9-1-1.5-1.9-1.9C9,75.3,7.5,75.2,6.8,75.8z M46.9,80.3c0.8,0.4,1,1.3,1.9,1.6c0.9-1,2.1-1.7,2.9-2.8
			C50.2,76.6,48.2,78.9,46.9,80.3z M40.2,86c1.5-0.2,3.9,0.6,4.3-0.7C43.4,82.7,41.4,84.7,40.2,86z"/>
		<path class="st1" d="M13.9,18.2c-0.1,0.3-1.8,1.7-2.2,2.8C11.3,20.2,13.2,18.9,13.9,18.2z"/>
	</g>
	<g>
		<path class="st1" d="M27,5.4c0-0.1,0-0.2,0-0.3c0.1,0,0.2,0.1,0.2,0.2c0.4,0-0.3-0.5,0.2-0.7c0.6,0.1,0.1,0.7,0,1
			C27.2,5.5,27.2,5.4,27,5.4z"/>
		<path class="st0" d="M40.2,58.2c-0.5,1.2-1.8,1.6-2.6,2.4c-0.7-0.3-1.3-0.8-1.7-1.4C36.9,57.9,38.8,56.1,40.2,58.2z"/>
		<path class="st0" d="M31.7,62.2c0.7,0.4,1.3,0.9,1.9,1.4c-0.6,1.1-1.8,1.5-2.8,2.2c-0.8-0.3-1.2-1-1.9-1.4
			C29.8,63.6,30.9,63.1,31.7,62.2z"/>
		<path class="st0" d="M26.7,68.8c-1,0.6-2,1.2-2.9,1.7c-0.8-0.4-1.5-1-1.9-1.9C23.6,67.5,25.7,66.3,26.7,68.8z"/>
		<path class="st0" d="M17.5,71c0.8,0.5,1.5,1,1.7,2.1c-1.4,0.2-1.8,1.3-3.5,1.2c-0.3-0.8-1.1-1-1.4-1.9
			C15.6,72.1,16.3,71.3,17.5,71z"/>
		<path class="st0" d="M24.1,72c0.1,0.4-1.2,0.6-1,0C23.6,71.9,23.6,71.9,24.1,72z"/>
		<path class="st0" d="M9.6,74.5c0.9,0.4,1.5,1,1.9,1.9c-1,0.5-2,0.9-2.9,1.4c-0.7-0.6-1.3-1.2-1.7-1.9C7.5,75.2,9,75.3,9.6,74.5z"
			/>
		<path class="st0" d="M51.7,79.1c-0.9,1-2,1.8-2.9,2.8c-0.9-0.2-1.1-1.2-1.9-1.6C48.2,78.9,50.2,76.6,51.7,79.1z"/>
		<path class="st0" d="M44.5,85.3c-0.4,1.3-2.9,0.5-4.3,0.7C41.4,84.7,43.4,82.7,44.5,85.3z"/>
		<path class="st0" d="M27.4,5.5c0.1-0.3,0.6-0.9,0-1c-0.4,0.2,0.2,0.6-0.2,0.7c0-0.1,0-0.2-0.2-0.2c0,0.1,0,0.2,0,0.3
			C27.2,5.4,27.2,5.5,27.4,5.5z M26.9,5.4c-0.5,1-1.8,2.1-1.9,2.9c0.7-0.9,1.2-1.9,2.1-2.6c-0.2,0.5-1.1,1.3-0.9,1.7
			C26.3,6.7,27.7,5.9,26.9,5.4z M11.7,20.9c0.4-1,2.2-2.5,2.2-2.8C13.2,18.9,11.3,20.2,11.7,20.9z"/>
		<path class="st1" d="M26.2,7.4C25.9,7,26.8,6.2,27,5.7c-0.9,0.7-1.4,1.7-2.1,2.6c0.1-0.8,1.4-1.9,1.9-2.9
			C27.7,5.9,26.3,6.7,26.2,7.4z"/>
		<path class="st1" d="M13.9,18.2c-0.1,0.3-1.8,1.7-2.2,2.8C11.3,20.2,13.2,18.9,13.9,18.2z"/>
	</g>
</g>
<g>
	<path class="st1" d="M8.3,25c0,0,2.5-3.9,6.1-7.9c2.8-3.1,6.7-6.3,8.3-7.8c1.7-1.6,3-3.1,3.9-4.3c0.9-1.2,1.9-2,1.9-2
		s-3.5,8.5-7.1,13.5s-7.8,10.9-7.8,10.9s3.1-4.8,6.2-9.5s6.6-12.1,6.6-12.1S16.1,16,14.7,17.5S8.3,25,8.3,25z"/>
</g>
<g>
	<path class="st1" d="M11.4,25.8c0,0,2.1-4.9,6.1-9.8c4-4.9,7.6-8.2,7.6-8.2s-7.6,8.8-8.8,10.6C15.1,20.1,11.4,25.8,11.4,25.8z"/>
</g>
<path class="st1" d="M78.7,45.6c0.2,5.4,10.5,2.4,9.7-2.9c-0.2-1.5-1.8-2.6-2.1-4.5c0.5,0,1,1.7,1.2,0.9c-0.1-0.8,0.1-0.7,0.5-0.3
	c-0.1-2.8-0.6-5.1-0.7-7.9c-1.7,0-3-0.4-4.3-0.7c-0.5-1.4-1.1-2.6-1.6-4c2.9,4.4,7.9-0.5,7.4-5.5c-1.8,0.9-3.1,2.1-5.4,1.7
	c-1.3-0.2-2.4-2-4-0.9c-0.4-0.4-0.2-1.5-1-1c-0.2,0.4-0.4,0.8-0.7,1c1.3,2.6,2.4,6.3,3.6,8.5c-5.6-0.1-12-1.7-18.1-1.7
	c-3.6,0-8.4-0.3-11.7,0c-2.3,0.2-3.7,1.9-5.7,1.6c-0.3,0.7-0.5,1.4-1.4,1.6c-0.4-3.8-0.2-7.2,1.7-9.3c-0.6-0.1-1.6,0.3-1.7-0.3
	c1-4.8-1.9-7.5-5-7.9c-3.3-0.4-4.1,3.7-4.1,4.3c-0.1,0.5-0.8,1.2-1,2.2c0.6,0,1.3,0,1.9,0C36,20.5,36,21,36,21.4
	c1,0.3,1.9-0.4,2.2-0.2c0,1.5,0,3,0,4.5c0.6,0.1,1.6-0.2,1.9,0.2c-0.9,0.9,0,3.6,0,4.5c-2,1.3-3.8-1.1-5.9-1.4c-1.9-0.3-4.3,0-6.6,0
	c-5.6,0-11,0.5-16.1,1c0.6-0.5,2.3-2.3,1.7-2.2c-0.4,0.1-2-0.5-1.9-0.9c-2.5,2.8-4,6.5-6.9,8.8c1.7-3.3,4.8-6.1,6.2-9.2
	c-0.7,0-3.1-0.6-2.8-1.2c-0.7,0.8-2.4,3.6-2.9,5.7c-1-0.1-1.6,0.3-2.4,0.3c-0.9,1.4-0.4,4.2-0.5,6.4c1.3,1.4,1.8-0.5,2.6-0.7
	c-0.6,0.4-0.2,0.3,0.2,0.3c1.8,0.3,4.9-0.4,7.8-0.7c2.7-0.3,5.4-0.6,7.8-0.7c7.9-0.4,12.6,0.9,16.9,4.5c2.1,3.1,5.1,5.3,5.5,10
	c0.1,0.7,0.5-0.1,0.7,0.3c-0.4,2.2-1.2,4.5-2.1,6.7c-0.9,2.2-1.7,4.6-2.6,6.4c-2.2,4.3-9.2,7.2-14.9,7.4c5-2.8,9.3-6.2,13.6-9.7
	c0.6-0.1,0.5,0.7,1.2,0.5c1.5-3.1,2.8-6.4,3.6-10.2c-10.8,9.3-23.6,18-39,23.3c2.3,3.4,6.6,7.1,8.8,10.5h-10v0c0,0,0,0,0,0
	c0,9.2,0,18.4,0,27.6c28.4,0,57.4,0,85.9,0c0-9.2,0-18.4,0-27.6c-9.9,0-20.4,0-30.3,0c-0.6,4.3,0.5,8.3,2.2,10.9
	c-1.2,0.4-2.2,0.9-3.5,1.2c-2.7-3.1-4.1-7.5-7.3-10.2c0.1-0.7,0.5-1.3,0.7-1.9c-0.4,0-0.7,0-1.1,0h-2.5c-0.3,0-0.5-0.1-0.7-0.2
	c1-0.8,2.1-1.5,3.1-2.4c2.5-2.2,3.9-4,4.1-8.6c0.2-4.3-1.5-5.7-3.1-8.1c-1-1.5-1.6-3.3-3.1-3.6c-0.4,1.7-0.8,3.4-1.4,5
	c2.4,2.1,4.8,3.7,6.9,6.1c-2.1,2-4.5,3.9-7.1,6c-1.6,1.3-5.2,5.3-7.2,5.9H15.6c-2.1-2.5-4.4-4.7-6.4-7.4c4.8-1.7,9.1-4,13.5-6.2
	c0.5,0.3,1.3,0.6,1.6,0.7c-2,3.7-4.3,8.1-5.9,11.2c0.5,0.6,1,1.2,1.9,1.4c0.9-1.3,1.6-2.8,2.2-4.3c2-1.2,2.4-1.5,4.3-3.3
	c0.2,0.7,1.6-0.1,2.2-0.3c3.9-1.3,8.9-2.8,11.6-5c1-0.8,3.6-3.2,4-4.3c0.9-2.6,1.2-4.9,2.8-7.3c1.7,2.9,5.5,5.3,6.2,9.2
	c0.4,2.3,0,5.2-0.3,7.3c-0.6,3.6-2.3,7-3.1,10c0.4,0.4,0.8-0.1,1.2,0.3c1.9,3.2,4,6.1,5.9,9.3c1,0,1.3-0.7,2.2-0.9
	c-1.8-3.3-2.9-6.8-2.4-10.7c0.8-6.7,4.9-14.6,2.6-20.9c-2.1-2.2-4-5.1-5.9-7.8c-0.7-1-1.7-2-1.9-2.8c-0.2-1.1,0.3-2.1,0.3-3.3
	c0.2-5.6-2.8-9.4-3.3-12.8c0.3-0.7,1.9-2.4,2.5-2.7c-0.2,0.1-0.4,0.5,0.2,0.3c9.8-3.1,22,0.5,32.3,1c0.5,1.2,1.2,2.2,1.4,3.6
	C81.9,40.4,78.6,42.6,78.7,45.6z M51.7,79.1c-0.9,1-2,1.8-2.9,2.8c-0.9-0.2-1.1-1.2-1.9-1.6C48.2,78.9,50.2,76.6,51.7,79.1z
	 M44.5,85.3c-0.1,0.4-0.5,0.6-0.9,0.7h-2.1c-0.4,0-0.8,0-1.1,0h-0.2C41.4,84.7,43.4,82.7,44.5,85.3z M40.2,58.2
	c-0.5,1.2-1.8,1.6-2.6,2.4c-0.7-0.3-1.3-0.8-1.7-1.4C36.9,57.9,38.8,56.1,40.2,58.2z M31.7,62.2c0.7,0.4,1.3,0.9,1.9,1.4
	c-0.6,1.1-1.8,1.5-2.8,2.2c-0.8-0.3-1.2-1-1.9-1.4C29.8,63.6,30.9,63.1,31.7,62.2z M8.6,77.7c-0.7-0.6-1.3-1.2-1.7-1.9
	c0.7-0.7,2.2-0.6,2.8-1.4c0.9,0.4,1.5,1,1.9,1.9C10.5,76.8,9.5,77.3,8.6,77.7z M15.8,74.3c-0.3-0.8-1.1-1-1.4-1.9
	c1.2-0.3,1.9-1.1,3.1-1.4c0.8,0.5,1.5,1,1.7,2.1C17.9,73.3,17.4,74.3,15.8,74.3z M21.9,68.6c1.8-1,3.8-2.3,4.8,0.2
	c-1,0.6-2,1.2-2.9,1.7C22.9,70,22.2,69.5,21.9,68.6z M23.1,72c0.5-0.2,0.5-0.2,1,0C24.2,72.4,22.9,72.7,23.1,72z M51.6,35.4
	C51.7,35.4,51.7,35.4,51.6,35.4C51.7,35.4,51.7,35.4,51.6,35.4z"/>
<g class="st2">
	<path class="st0" d="M7.7,97.6c-0.1-0.9,0.3-1.5,1.1-1.5c0.7-0.1,1.2,0.2,1.3,0.7c0.1,0.5-0.3,1.4-0.3,1.4c0.2,1.2,4.4,2.4,4.8,4.3
		c0,0.2,0,0.3,0,0.5c1.3-0.5,1.6-1.7,1.6-1.7s0.1-0.2,0.3-0.3c0.2,0,0.4,0,0.4,0.2c0,0.1,0,0.3,0,0.3s-0.4,1.6-2.6,2.1
		c-0.6,1-2.1,1.7-3.6,1.8c-1.5,0.1-3.3-0.3-3.4-1.2c-0.1-0.6,0.6-1,1.3-1c1-0.1,2.3,0,3.7,0c0-0.2,0-0.3,0-0.5
		c-0.3-1.7-2.6-2.9-3.2-3.6c-0.1,1.8-0.6,3-0.6,3.1c0,0-0.1,0.2-0.3,0.3c-0.2,0-0.4,0-0.4-0.2c0-0.1,0-0.3,0-0.3s0.4-1.4,0.5-3.2
		C8.3,98.9,7.8,98.1,7.7,97.6z M12.2,103.8c-1.1,0-2,0-2.8,0c-0.5,0-0.8,0.3-0.7,0.5c0.1,0.4,0.9,0.7,1.7,0.6
		C11.4,104.8,11.9,104.4,12.2,103.8z"/>
	<path class="st0" d="M22.5,105.7c0,0.1,0,0.2-0.3,0.2c-1.1,0.1-2.6-0.4-3.7-1.3c-2-1.6-2.7-3.8-3.3-6.9c-1.1-5.7,0.5-7.5,2.2-7.7
		c1.3-0.1,2,0.7,2.3,1.9c0.7,3.6-1.2,7.6-1.8,8.6c0.7,2.1,2,4.3,4.2,4.9C22.3,105.5,22.5,105.5,22.5,105.7z M17.6,99.6
		c0.6-1.6,1.8-4.8,1.3-7.6c-0.2-0.8-0.4-1.2-1.1-1.1c-0.8,0.1-1.5,2.1-0.6,6.8C17.3,98.2,17.4,98.9,17.6,99.6z"/>
	<path class="st0" d="M27.4,102c0,0.1-0.3,2.1-2.3,2.2c-1.6,0.1-3.6-0.8-4-2.9c-0.7-3.7,2-5.7,4.6-5.9c1.5-0.1,2.7,0.4,2.9,1.4
		c0.1,0.3-0.7,0.7-1,0.7c-0.1,0-0.2,0-0.2-0.1c0-0.1,0-0.2,0-0.5c-0.1-0.6-0.7-0.8-1.5-0.8c-1.5,0.1-3.2,1.8-2.5,5.1
		c0.3,1.5,1.2,2.3,2.1,2.2c1.1-0.1,1.4-2,1.5-3.2c0.1-1-0.1-2.2,2-2.4c0.1,0,0.3,0,0.3,0.1c0,0.2-0.6,0.8-0.2,2.8
		c0.2,1.1,0.6,1.8,1.5,1.8c1.4-0.1,2.2-2.6,2.2-2.6s0.1-0.2,0.3-0.3c0.2,0,0.4,0,0.4,0.2c0,0.1,0,0.3,0,0.3s-1,3.2-3,3.4
		C28.4,103.6,27.5,102.1,27.4,102z"/>
	<path class="st0" d="M43.1,102.1c1.4-0.1,2.1-2.5,1.6-5c-0.3-1.4-0.9-2-1-2.5c-0.1-0.6,1.1-1.1,1.6-1.2c0.5,0,0.9,0.7,1.2,2
		c0.8,4-0.6,7.1-3.5,7.3c-1.5,0.1-2.8-0.4-3.7-2c-0.3,1-1.1,2.2-2.7,2.4c-1.4,0.1-3.7-0.5-4.3-3.5c-0.7-3.5,0.6-4.4,1.9-4.5
		c0.2,0,0.4,0,0.4,0.2c0.1,0.3-0.8,1.3-0.2,4.6c0.4,2.1,1.4,2.4,2.3,2.4c1.2-0.1,1.8-1.9,1.6-3c-0.7-3.5,0.4-4.2,1.8-4.3
		c0.2,0,0.4,0,0.4,0.2c0.1,0.3-0.6,0.9,0.1,4.2C41.1,101.5,42.1,102.1,43.1,102.1z"/>
</g>
<g class="st2">
	<path class="st0" d="M61,104.4c0,0,0.1-0.2,0.4-0.2c0.2,0,0.4,0.1,0.4,0.2c0,0.1-0.1,0.3-0.1,0.3s-1.7,3.4-4.4,3.4
		c-1.2,0-2.4-0.6-2.4-1.7c0-2.2,1.5-3.1,1.5-4.6c0-0.3-0.2-0.6-0.8-0.6c-0.9,0-2.3,1-2.9,2.3c-0.6,1.3-0.7,2.7-0.7,3.9
		c0,0.2-0.1,0.3-0.4,0.3c-1.5,0-1.4-0.6-1.4-5.2c0-1.6,0-2.3-0.8-2.3c-1.2,0-2.4,2.4-3,4.9c-0.3,1.2-0.3,1.9-0.3,2.2
		c0,0.3-0.6,0.4-0.9,0.4c-0.5,0-1.2-1.5-1.2-3.8c0-2.9,0.5-4,1.8-4c0.2,0,0.4,0.1,0.4,0.2c0,0.3-0.4,0.9-0.4,4.2
		c0.6-2.3,1.6-5.2,4.2-5.2c1.6,0,2.3,1,2.3,2.5c0,0.3,0,0.7-0.1,1.1c0.5-0.7,2.3-2.6,4.2-2.6c1.2,0,1.8,0.6,1.8,1.4
		c0,1.4-1.3,3-1.3,4.7c0,0.5,0.4,0.8,1,0.8C59.5,107.1,61,104.4,61,104.4z"/>
	<path class="st0" d="M66.9,106.1c0,0.1-0.7,2-2.7,2c-1.6,0-3.4-1.1-3.4-3.2c0-3.7,3.1-5.5,5.7-5.5c1.5,0,2.6,0.7,2.6,1.6
		c0,0.3-0.8,0.6-1.2,0.6c-0.1,0-0.2-0.1-0.2-0.1c0-0.1,0.1-0.2,0.1-0.5c0-0.6-0.6-0.9-1.4-0.9c-1.5,0-3.5,1.5-3.5,4.8
		c0,1.5,0.7,2.4,1.6,2.4c1.1,0,1.8-1.8,2.1-3c0.2-0.9,0.3-2.2,2.4-2.2c0.1,0,0.3,0.1,0.3,0.2c0,0.2-0.7,0.8-0.7,2.7
		c0,1.1,0.3,1.9,1.1,1.9c1.4,0,2.6-2.4,2.6-2.4s0.1-0.2,0.4-0.2c0.2,0,0.4,0.1,0.4,0.2c0,0.1-0.1,0.3-0.1,0.3s-1.6,3.1-3.6,3.1
		C67.5,107.8,67,106.2,66.9,106.1z"/>
	<path class="st0" d="M77.9,109.3c0,0.1-0.1,0.2-0.4,0.2c-1.1,0-2.5-0.6-3.4-1.6c-1.7-1.7-1.9-4-1.9-7.1c0-5.7,2-7.4,3.7-7.4
		c1.3,0,1.9,0.9,1.9,2.1c0,3.6-2.7,7.4-3.4,8.3c0.3,2.2,1.1,4.4,3.3,5.2C77.7,109.1,77.9,109.1,77.9,109.3z M74.2,102.8
		c0.9-1.5,2.7-4.6,2.7-7.4c0-0.8-0.1-1.2-0.8-1.2c-0.8,0-1.9,1.9-1.9,6.7C74.1,101.4,74.1,102.1,74.2,102.8z"/>
	<path class="st0" d="M77.9,104.2c0-3.5,1.4-4.8,2.7-4.8c0.2,0,0.4,0.1,0.4,0.2c0,0.3-1,1.7-1,4.9c0,2.1,0.7,2.7,1.5,2.7
		c1.5,0,3.1-2.9,3.1-2.9s0.1-0.2,0.4-0.2c0.2,0,0.4,0.1,0.4,0.2c0,0.1-0.1,0.3-0.1,0.3s-1.9,3.5-4.2,3.5
		C79.6,108.2,77.9,107.5,77.9,104.2z M81.5,95.2c0.6,0,1.1,0.4,1.1,0.8c0,0.6-0.6,1.3-1.5,1.3c-0.7,0-1.1-0.4-1.1-0.9
		C80,95.9,80.6,95.2,81.5,95.2z"/>
</g>
<path class="st1" d="M88.9,57.9c-10.1,4.8-20.3,9.4-28.5,16.1c-0.3-1.3,0.8-2.8,0.5-4.7c0.7,0.3,1.1,1,1.7,1.4
	c0.9-0.7,1.9-1.3,2.8-1.9c-0.1-1-1-1.3-1.6-1.9c-1.1,0.3-2.1,1.7-2.9,1.7c-0.4-1.5,1.3-1.9,2.1-2.4c6-4.1,13.2-8,20.2-11.2
	c-5.2-5.1-10.7-9.9-16.4-14.5c-5.2,2.4-10,6.2-14.3,9c0.2-1.6-0.3-3.8-0.9-4.7c4-3.2,8.3-6.1,13.1-8.5
	C73.1,43.2,81.2,50.2,88.9,57.9z M61.4,39.4c0.4,0.9,1.1,1.3,1.9,1.7c0.8-0.7,2.2-0.8,2.6-1.9C64.5,37.6,62.9,38.2,61.4,39.4z
	 M54.8,43.9c0.9,0.2,1,1.1,2.1,1.2c0.8-0.7,1.9-1,2.4-1.9C58,41.1,56.1,42.4,54.8,43.9z M81.4,57c0.5,0.9,1.2,1.6,2.1,2.1
	c0.8-0.5,1.4-1.1,2.6-1.2C85.4,55.3,83.3,55.9,81.4,57z M74.7,60.3c0.2,1.1,1.1,1.5,1.9,2.1c0.8-0.6,2-0.8,2.6-1.6
	C78.6,59,76.4,59,74.7,60.3z M67.8,64.4c0.6,0.5,0.9,1.4,1.9,1.6c0.9-0.6,2.1-0.9,2.8-1.7C71.4,62.2,69,62.8,67.8,64.4z"/>
</svg>
