<?xml version="1.0" encoding="utf-8"?>
<!-- Generator: Adobe Illustrator 20.1.0, SVG Export Plug-In . SVG Version: 6.00 Build 0)  -->
<svg version="1.1" id="Layer_1" xmlns="http://www.w3.org/2000/svg" xmlns:xlink="http://www.w3.org/1999/xlink" x="0px" y="0px"
	 viewBox="0 0 60 60" style="enable-background:new 0 0 60 60;" xml:space="preserve">
<style type="text/css">
	.st0{fill:#E3BC23;}
	.st1{fill:#FFFFFF;}
</style>
<circle class="st0" cx="30" cy="30" r="29.5"/>
<g id="Thinking_Man">
	<g>
		<path class="st1" d="M27.2,44.1l-3.7-5.8c0,0-8.5-3.4-7.5-13.4c0.8-8.5,16.3-13.8,23.1-2.8c0,0,0.2,0.8-0.1,0.9
			c-0.3,0.1,6.7,4.2,4.5,5.2c-1.8,0.8-1.9,0.6-1.9,0.6s1.3,1.6,1,2c-0.3,0.4-6-0.4-3,1.4c1.1,0.6,3.8-0.1,3.3,1
			c-0.2,0.4-0.4,2.5-0.4,2.5s0.9,1.3-0.6,2c-1.6,0.7-5.6,1.7-5.6,1.7L36,40.6c0,0,0.3,0.6,0.4,1.3c0.1,0.6-0.6,1.5-0.6,1.5l-0.4,1
			l-3.8,7.3L27.2,44.1z"/>
	</g>
	<g>
		<path class="st1" d="M26.2,37.2c-0.6-2-1-2.7-1.2-2.9c-0.1,0-0.2,0.1-0.3,0.2c-0.7,0.5-2.1,1.3-4.1,0.2c-2.1-1.3-3.7-4.2-3.8-7.2
			c-0.1-3.3,1.3-6.2,4-8.1c5.3-3.8,12.6-1.2,14.1,0.4c0.6,0.6,0.9,1.4,0.6,2.2c-0.6,2-3.6,3-5.4,3.4c-1.8,0.4-2,0.9-2,0.9
			c0,0.1,0.2,0.4,0.7,0.7c0.6,0.4,0.8,0.8,0.8,1.2c0.2,0.9-0.4,1.7-1,2.5c-0.2,0.3-0.7,1-0.7,1.2c0.3,1.4,0.2,4.8,0.1,5.2L26.2,37.2
			z M27.3,19.3c-1.8,0-3.7,0.4-5.3,1.6c-2.9,2.1-3.2,4.9-3.2,6.4c0.1,2.3,1.3,4.6,2.8,5.5c0.9,0.6,1.4,0.3,2-0.1
			c0.5-0.3,1.2-0.7,2-0.4c0.2,0.1,0.3,0.2,0.5,0.3c0-0.2,0-0.4-0.1-0.5c-0.2-1,0.5-1.9,1-2.7c0.2-0.3,0.5-0.7,0.6-0.9
			c-1.1-0.8-1.7-1.7-1.5-2.6c0.3-1.7,2.7-2.3,3.5-2.5c2.7-0.6,3.9-1.6,4-2c0,0,0-0.1-0.1-0.2C32.9,20.5,30.2,19.3,27.3,19.3z"/>
	</g>
	<g>
		<path class="st1" d="M14.5,9c-0.1,0.1-0.2,0.3-0.1,0.4l4.8,7.5c0.1,0.1,0.3,0.2,0.4,0.1c0.1-0.1,0.2-0.3,0.1-0.4l-4.2-7.9
			C15.5,8.6,14.7,8.9,14.5,9z"/>
	</g>
	<g>
		<path class="st1" d="M25.6,7.4c-0.2,0-0.3,0.2-0.3,0.3l0.4,6.5c0,0.2,0.2,0.3,0.3,0.3c0.2,0,0.3-0.2,0.3-0.3l0.2-6.7
			C26.6,7.4,25.8,7.4,25.6,7.4z"/>
	</g>
	<g>
		<path class="st1" d="M34.7,8.8l-3,6c-0.1,0.2,0,0.3,0.1,0.4c0.2,0.1,0.3,0,0.4-0.1l3.5-5.6c0.1-0.2-0.5-0.7-0.6-0.7
			C35,8.6,34.8,8.7,34.7,8.8z"/>
	</g>
	<g>
		<path class="st1" d="M41.2,12.6L36.6,17c-0.1,0.1-0.1,0.3,0,0.4c0.1,0.1,0.3,0.1,0.4,0l4.9-4c0.1-0.1-0.2-0.8-0.3-0.9
			C41.5,12.5,41.3,12.5,41.2,12.6z"/>
	</g>
	<g>
		<path class="st1" d="M12.2,19.4c-0.1,0.2-0.2,0.8,0,0.9l3.9,1.4c0.2,0.1,0.3,0,0.4-0.1c0.1-0.2,0-0.3-0.1-0.4l-3.7-1.8
			C12.4,19.1,12.2,19.2,12.2,19.4z"/>
	</g>
</g>
</svg>
